# xmcd CD database file
# 
# Track frame offsets:
# 	150
# 	17412
# 	36657
# 	57454
# 	74011
# 	91699
# 	119430
# 	135415
# 	143956
# 	158579
# 	172930
# 	194643
# 	208692
# 
# Disc length: 3048 seconds
# 
# Submitted via: Nero 5.5.9.0
# 
# Revision: 0
# Processed by: cddbd v1.4PL0 Copyright (c) Steve Scherf et al.
#
DISCID=bb0be60d
DTITLE=Kimmie Rhodes - Love Me Like A Song
DYEAR=1900
DGENRE=
TTITLE0=Darkness Lifting
TTITLE1=I Have Everything
TTITLE2=Only Love Can Save Me Now
TTITLE3=Love Me Like A Song
TTITLE4=Send Me The Sun
TTITLE5=Midnight Song
TTITLE6=Play Me A Memory
TTITLE7=Louis' World
TTITLE8=We've Done This Before
TTITLE9=Witness To The Crime
TTITLE10=Love and Happiness For You
TTITLE11=November December
TTITLE12=The One To Walk You Home
EXTD=
EXTT0=
EXTT1=
EXTT2=
EXTT3=
EXTT4=
EXTT5=
EXTT6=
EXTT7=
EXTT8=
EXTT9=
EXTT10=
EXTT11=
EXTT12=
PLAYORDER=
